<svg width="24" height="22" viewBox="0 0 24 22" fill="none" xmlns="http://www.w3.org/2000/svg">
<path d="M4.84704 19.5765C4.84704 18.238 3.76199 17.153 2.42352 17.153C1.08505 17.153 0 18.238 0 19.5765C0 20.915 1.08505 22 2.42352 22C3.76199 22 4.84704 20.915 4.84704 19.5765Z" fill="#303E67"/>
<path d="M4.84704 10.922C4.84704 9.58353 3.76199 8.49848 2.42352 8.49848C1.08505 8.49848 0 9.58353 0 10.922C0 12.2605 1.08505 13.3455 2.42352 13.3455C3.76199 13.3455 4.84704 12.2605 4.84704 10.922Z" fill="#303E67"/>
<path d="M4.84704 2.46131C4.84704 1.12283 3.76199 0.0377846 2.42352 0.0377846C1.08505 0.0377846 0 1.12283 0 2.46131C0 3.79978 1.08505 4.88483 2.42352 4.88483C3.76199 4.88483 4.84704 3.79978 4.84704 2.46131Z" fill="#303E67"/>
<path d="M14.2512 19.5388C14.2512 18.2003 13.1662 17.1152 11.8277 17.1152C10.4892 17.1152 9.40417 18.2003 9.40417 19.5388C9.40417 20.8772 10.4892 21.9623 11.8277 21.9623C13.1662 21.9623 14.2512 20.8772 14.2512 19.5388Z" fill="#303E67"/>
<path d="M14.2512 10.8842C14.2512 9.54577 13.1662 8.46073 11.8277 8.46073C10.4892 8.46073 9.40417 9.54577 9.40417 10.8842C9.40417 12.2227 10.4892 13.3078 11.8277 13.3078C13.1662 13.3078 14.2512 12.2227 14.2512 10.8842Z" fill="#303E67"/>
<path d="M14.2512 2.42349C14.2512 1.08502 13.1662 -2.67029e-05 11.8277 -2.67029e-05C10.4892 -2.67029e-05 9.40417 1.08502 9.40417 2.42349C9.40417 3.76197 10.4892 4.84702 11.8277 4.84702C13.1662 4.84702 14.2512 3.76197 14.2512 2.42349Z" fill="#303E67"/>
<path d="M23.6555 19.5388C23.6555 18.2003 22.5704 17.1152 21.2319 17.1152C19.8935 17.1152 18.8084 18.2003 18.8084 19.5388C18.8084 20.8772 19.8935 21.9623 21.2319 21.9623C22.5704 21.9623 23.6555 20.8772 23.6555 19.5388Z" fill="#303E67"/>
<path d="M23.6554 10.8842C23.6554 9.54577 22.5703 8.46073 21.2319 8.46073C19.8934 8.46073 18.8083 9.54577 18.8083 10.8842C18.8083 12.2227 19.8934 13.3078 21.2319 13.3078C22.5703 13.3078 23.6554 12.2227 23.6554 10.8842Z" fill="#303E67"/>
<path d="M23.6554 2.42349C23.6554 1.08502 22.5703 -2.67029e-05 21.2319 -2.67029e-05C19.8934 -2.67029e-05 18.8083 1.08502 18.8083 2.42349C18.8083 3.76197 19.8934 4.84702 21.2319 4.84702C22.5703 4.84702 23.6554 3.76197 23.6554 2.42349Z" fill="#303E67"/>
</svg>
