<svg width="20" height="20" viewBox="0 0 20 20" fill="none" xmlns="http://www.w3.org/2000/svg">
<g opacity="0.8">
<path d="M10 0C4.48589 0 0 4.48589 0 10C0 15.5141 4.48589 20 10 20C15.5141 20 20 15.5141 20 10C20 4.48588 15.5141 0 10 0ZM10 18.0645C5.55317 18.0645 1.93548 14.4468 1.93548 10C1.93548 5.55317 5.55317 1.93548 10 1.93548C14.4468 1.93548 18.0645 5.55317 18.0645 10C18.0645 14.4468 14.4468 18.0645 10 18.0645Z" fill="white"/>
<path d="M9.38111 6.98072H12.6132C13.1475 6.98072 13.581 6.54756 13.581 6.01297C13.581 5.47839 13.1475 5.04523 12.6132 5.04523H10.9682V4.64548C10.9682 4.11089 10.5347 3.67773 10.0004 3.67773C9.46617 3.67773 9.0327 4.11089 9.0327 4.64548V5.08048C7.56533 5.25536 6.41992 6.49299 6.41992 8.00675C6.41992 8.80154 6.72675 9.54625 7.28371 10.1042C7.84129 10.6611 8.586 10.9679 9.38111 10.9679H10.6198C10.8982 10.9679 11.1572 11.0735 11.3481 11.2647C11.5403 11.4565 11.6455 11.7155 11.6455 11.9936C11.6455 12.5594 11.1855 13.0197 10.6198 13.0197H7.38766C6.85339 13.0197 6.41992 13.4528 6.41992 13.9874C6.41992 14.522 6.85339 14.9551 7.38766 14.9551H9.0327V15.3549C9.0327 15.8895 9.46617 16.3226 10.0004 16.3226C10.5347 16.3226 10.9682 15.8895 10.9682 15.3549V14.9199C12.4355 14.745 13.581 13.5074 13.581 11.9936C13.581 11.1988 13.2741 10.4541 12.7172 9.89622C12.1596 9.33928 11.4149 9.03244 10.6198 9.03244H9.38111C9.10263 9.03244 8.84368 8.92691 8.65278 8.7357C8.46062 8.54385 8.3554 8.2849 8.3554 8.00674C8.35541 7.44096 8.81533 6.98072 9.38111 6.98072Z" fill="white"/>
</g>
</svg>
