<svg width="50" height="50" viewBox="0 0 50 50" fill="none" xmlns="http://www.w3.org/2000/svg">
<circle opacity="0.4" cx="25" cy="25" r="25" fill="#EDF0F4"/>
<path opacity="0.2" d="M17 23H33L33.5 27.5L31 32L25.5 35.5L19.5 32.5L16.5 27.5L17 23Z" fill="#FF9F43"/>
<g clip-path="url(#clip0_1_1429)">
<path d="M26 27.9997H24V17.9997H26V27.9997ZM25.793 36.7077C27.953 35.8397 35 32.4277 35 24.9907V18.4667C35.0002 17.8372 34.8018 17.2236 34.433 16.7133C34.0642 16.2031 33.5438 15.8221 32.946 15.6247L25 12.9897L17.054 15.6247C16.4562 15.8221 15.9358 16.2031 15.567 16.7133C15.1983 17.2236 14.9998 17.8372 15 18.4667V24.9907C15 31.5537 22.005 35.5667 24.153 36.6417L24.953 37.0417L25.793 36.7077ZM32.316 17.5227C32.5144 17.5888 32.6871 17.7154 32.8098 17.8848C32.9325 18.0541 32.999 18.2576 33 18.4667V24.9907C33 31.1737 26.913 34.1027 25.047 34.8527C23.159 33.9077 17 30.4067 17 24.9907V18.4667C17.001 18.2576 17.0675 18.0541 17.1902 17.8848C17.3129 17.7154 17.4856 17.5888 17.684 17.5227L25 15.0997L32.316 17.5227ZM26 29.9997H24V31.9997H26V29.9997Z" fill="#F08F32"/>
</g>
<defs>
<clipPath id="clip0_1_1429">
<rect width="24" height="24" fill="white" transform="translate(13 13)"/>
</clipPath>
</defs>
</svg>
