<svg width="20" height="20" viewBox="0 0 20 20" fill="none" xmlns="http://www.w3.org/2000/svg">
<g clip-path="url(#clip0_11_11272)">
<path d="M9.16667 9.16667H0V2.5C0 1.83696 0.263392 1.20107 0.732233 0.732233C1.20107 0.263392 1.83696 0 2.5 0L9.16667 0V9.16667ZM1.66667 7.5H7.5V1.66667H2.5C2.27899 1.66667 2.06702 1.75446 1.91074 1.91074C1.75446 2.06702 1.66667 2.27899 1.66667 2.5V7.5Z" fill="white"/>
<path d="M19.9997 9.16667H10.833V0H17.4997C18.1627 0 18.7986 0.263392 19.2674 0.732233C19.7363 1.20107 19.9997 1.83696 19.9997 2.5V9.16667ZM12.4997 7.5H18.333V2.5C18.333 2.27899 18.2452 2.06702 18.0889 1.91074C17.9326 1.75446 17.7207 1.66667 17.4997 1.66667H12.4997V7.5Z" fill="white"/>
<path d="M9.16667 20.0002H2.5C1.83696 20.0002 1.20107 19.7368 0.732233 19.2679C0.263392 18.7991 0 18.1632 0 17.5002L0 10.8335H9.16667V20.0002ZM1.66667 12.5002V17.5002C1.66667 17.7212 1.75446 17.9331 1.91074 18.0894C2.06702 18.2457 2.27899 18.3335 2.5 18.3335H7.5V12.5002H1.66667Z" fill="white"/>
<path d="M17.4997 20.0002H10.833V10.8335H19.9997V17.5002C19.9997 18.1632 19.7363 18.7991 19.2674 19.2679C18.7986 19.7368 18.1627 20.0002 17.4997 20.0002ZM12.4997 18.3335H17.4997C17.7207 18.3335 17.9326 18.2457 18.0889 18.0894C18.2452 17.9331 18.333 17.7212 18.333 17.5002V12.5002H12.4997V18.3335Z" fill="white"/>
</g>
<defs>
<clipPath id="clip0_11_11272">
<rect width="20" height="20" fill="white"/>
</clipPath>
</defs>
</svg>
