<svg width="18" height="18" viewBox="0 0 18 18" fill="none" xmlns="http://www.w3.org/2000/svg">
<g clip-path="url(#clip0_185_6376)">
<path d="M9 8.9999C9.59334 8.9999 10.1734 8.82395 10.6667 8.4943C11.1601 8.16466 11.5446 7.69612 11.7716 7.14795C11.9987 6.59977 12.0581 5.99657 11.9424 5.41462C11.8266 4.83268 11.5409 4.29813 11.1213 3.87857C10.7018 3.45902 10.1672 3.17329 9.58527 3.05754C9.00333 2.94178 8.40013 3.00119 7.85195 3.22826C7.30377 3.45532 6.83524 3.83984 6.50559 4.33318C6.17595 4.82653 6 5.40655 6 5.99989C6 6.79554 6.31607 7.55861 6.87868 8.12122C7.44129 8.68382 8.20435 8.9999 9 8.9999ZM9 4.49989C9.29667 4.49989 9.58668 4.58787 9.83336 4.75269C10.08 4.91751 10.2723 5.15178 10.3858 5.42587C10.4994 5.69996 10.5291 6.00156 10.4712 6.29253C10.4133 6.5835 10.2704 6.85078 10.0607 7.06055C9.85088 7.27033 9.58361 7.4132 9.29264 7.47107C9.00167 7.52895 8.70006 7.49925 8.42598 7.38571C8.15189 7.27218 7.91762 7.07992 7.7528 6.83325C7.58797 6.58658 7.5 6.29657 7.5 5.99989C7.5 5.60207 7.65804 5.22054 7.93934 4.93923C8.22064 4.65793 8.60218 4.49989 9 4.49989ZM12 16.5224L18 17.9834V10.1121C17.9998 9.62905 17.8442 9.15884 17.5561 8.77105C17.268 8.38327 16.8627 8.09851 16.4003 7.9589L14.8253 7.43389C14.9404 6.96609 14.9991 6.48617 15 6.00439C15 4.41309 14.3679 2.88697 13.2426 1.76175C12.1174 0.636536 10.5913 0.00439453 9 0.00439453C7.4087 0.00439453 5.88258 0.636536 4.75736 1.76175C3.63214 2.88697 3 4.41309 3 6.00439C3.00222 6.30884 3.02729 6.6127 3.075 6.91339C2.7344 6.77761 2.36572 6.72736 2.0012 6.76703C1.63669 6.8067 1.28745 6.93509 0.984035 7.14097C0.680622 7.34685 0.43228 7.62394 0.260734 7.948C0.0891893 8.27206 -0.000332408 8.63323 9.27481e-07 8.9999V16.3139L5.98725 18.0246L12 16.5224ZM5.81775 2.82289C6.66318 1.98946 7.80371 1.52387 8.99087 1.52755C10.178 1.53124 11.3156 2.00389 12.1559 2.84255C12.9961 3.68122 13.4709 4.81794 13.4769 6.00509C13.4828 7.19224 13.0193 8.33364 12.1875 9.18064L9 12.2999L5.81775 9.18664C4.9739 8.34274 4.49984 7.19819 4.49984 6.00477C4.49984 4.81135 4.9739 3.6668 5.81775 2.82289ZM1.5 8.9999C1.49905 8.8762 1.52918 8.75424 1.58763 8.64521C1.64607 8.53619 1.73096 8.44358 1.8345 8.37589C1.94281 8.30481 2.06758 8.26278 2.19683 8.25385C2.32607 8.24492 2.45544 8.26939 2.5725 8.32489L3.648 8.7134C3.93575 9.28321 4.31219 9.8037 4.76325 10.2554L9 14.3999L13.2428 10.2501C13.6599 9.83356 14.0137 9.35799 14.2928 8.83864L15.9555 9.39439C16.1121 9.43919 16.2499 9.53375 16.348 9.66378C16.4461 9.79382 16.4992 9.95226 16.4993 10.1151V16.0769L12 14.9774L6.015 16.4774L1.5 15.1844V8.9999Z" fill="white"/>
</g>
<defs>
<clipPath id="clip0_185_6376">
<rect width="18" height="18" fill="white"/>
</clipPath>
</defs>
</svg>
