<svg width="24" height="24" viewBox="0 0 24 24" fill="none" xmlns="http://www.w3.org/2000/svg">
<g clip-path="url(#clip0_11_15201)">
<path d="M15.9998 24H7.99977V19.1L4.14577 21.5L0.00776672 14.855L4.59277 12L0.00776672 9.145L4.14577 2.5L7.99977 4.9V0H15.9998V4.9L19.8538 2.5L23.9918 9.148L19.4068 12L23.9918 14.855L19.8538 21.5L15.9998 19.1V24ZM9.99977 22H13.9998V15.5L19.2128 18.747L21.2378 15.5L15.6238 12L21.2378 8.5L19.2128 5.252L13.9998 8.5V2H9.99977V8.5L4.78677 5.252L2.76177 8.5L8.37577 12L2.76177 15.5L4.78677 18.752L9.99977 15.5V22Z" fill="white"/>
</g>
<defs>
<clipPath id="clip0_11_15201">
<rect width="24" height="24" fill="white"/>
</clipPath>
</defs>
</svg>
