<svg width="20" height="20" viewBox="0 0 20 20" fill="none" xmlns="http://www.w3.org/2000/svg">
<g clip-path="url(#clip0_11_11305)">
<path d="M12.4997 2.02246V3.77246C14.1677 4.3622 15.5736 5.52263 16.4688 7.04866C17.364 8.57469 17.6909 10.3681 17.3917 12.1118C17.0925 13.8555 16.1865 15.4374 14.8338 16.5777C13.4812 17.7181 11.7689 18.3435 9.9997 18.3435C8.23048 18.3435 6.51822 17.7181 5.16555 16.5777C3.81287 15.4374 2.90689 13.8555 2.60771 12.1118C2.30853 10.3681 2.63542 8.57469 3.53062 7.04866C4.42581 5.52263 5.83166 4.3622 7.4997 3.77246V2.02246C5.37105 2.62588 3.53247 3.97883 2.32323 5.83167C1.114 7.68451 0.615711 9.91219 0.920319 12.1036C1.22493 14.2951 2.31187 16.3024 3.98059 17.7553C5.64931 19.2081 7.78717 20.0083 9.9997 20.0083C12.2122 20.0083 14.3501 19.2081 16.0188 17.7553C17.6875 16.3024 18.7745 14.2951 19.0791 12.1036C19.3837 9.91219 18.8854 7.68451 17.6762 5.83167C16.4669 3.97883 14.6283 2.62588 12.4997 2.02246Z" fill="white"/>
<path d="M10.8327 0H9.16602V6.66667H10.8327V0Z" fill="white"/>
</g>
<defs>
<clipPath id="clip0_11_11305">
<rect width="20" height="20" fill="white"/>
</clipPath>
</defs>
</svg>
