<svg width="15" height="18" viewBox="0 0 15 18" fill="none" xmlns="http://www.w3.org/2000/svg">
<path d="M3.90669 9H11.1498V10.5H3.90669V9ZM3.90669 13.5H8.97684V12H3.90669V13.5ZM14.7713 5.6895V18H0.285156V2.25C0.285156 1.65326 0.514088 1.08097 0.92159 0.65901C1.32909 0.237053 1.88178 0 2.45808 0L9.2767 0L14.7713 5.6895ZM9.70114 5.25H12.2985L9.70114 2.5605V5.25ZM13.3227 16.5V6.75H8.25253V1.5H2.45808C2.26598 1.5 2.08175 1.57902 1.94591 1.71967C1.81008 1.86032 1.73377 2.05109 1.73377 2.25V16.5H13.3227Z" fill="#374957"/>
</svg>
