<svg width="22" height="22" viewBox="0 0 22 22" fill="none" xmlns="http://www.w3.org/2000/svg">
<path d="M20.976 14.8499L18.5927 6.25984C18.0837 4.42231 16.9748 2.8078 15.4424 1.67329C13.9099 0.53877 12.042 -0.0505625 10.1359 -0.000916167C8.22988 0.0487302 6.39519 0.734503 4.92387 1.94726C3.45256 3.16001 2.42917 4.83006 2.01659 6.69159L0.173174 14.9874C0.0839753 15.3893 0.086151 15.8061 0.17954 16.2071C0.272929 16.608 0.455149 16.9829 0.712755 17.304C0.970362 17.6252 1.29678 17.8844 1.66793 18.0625C2.03908 18.2406 2.44549 18.3332 2.85717 18.3333H6.16359C6.37398 19.3694 6.93609 20.3009 7.75469 20.9699C8.57328 21.639 9.59801 22.0045 10.6553 22.0045C11.7125 22.0045 12.7372 21.639 13.5558 20.9699C14.3744 20.3009 14.9365 19.3694 15.1469 18.3333H18.3278C18.7514 18.3331 19.1692 18.235 19.5487 18.0468C19.9281 17.8585 20.259 17.5851 20.5154 17.248C20.7718 16.9108 20.9469 16.519 21.0269 16.103C21.107 15.687 21.0899 15.2582 20.9769 14.8499H20.976ZM10.6553 20.1666C10.0885 20.1642 9.53635 19.9868 9.07428 19.6587C8.61222 19.3305 8.26283 18.8676 8.07392 18.3333H13.2366C13.0477 18.8676 12.6983 19.3305 12.2362 19.6587C11.7742 19.9868 11.222 20.1642 10.6553 20.1666ZM19.0565 16.1378C18.971 16.2512 18.8601 16.343 18.7328 16.4059C18.6055 16.4688 18.4652 16.501 18.3232 16.4999H2.85717C2.71991 16.4999 2.58441 16.4691 2.46067 16.4097C2.33692 16.3503 2.2281 16.2638 2.14222 16.1568C2.05635 16.0497 1.99562 15.9247 1.96451 15.791C1.93341 15.6573 1.93272 15.5183 1.96251 15.3843L3.80592 7.08851C4.13075 5.62753 4.93462 4.31706 6.08976 3.36542C7.24489 2.41378 8.685 1.87558 10.1811 1.83639C11.6773 1.79719 13.1436 2.25925 14.347 3.1491C15.5503 4.03896 16.4217 5.30554 16.8226 6.74751L19.2059 15.3376C19.2448 15.4734 19.2516 15.6165 19.2257 15.7554C19.1997 15.8942 19.1418 16.0252 19.0565 16.1378Z" fill="#303E67"/>
</svg>
