<svg width="18" height="18" viewBox="0 0 18 18" fill="none" xmlns="http://www.w3.org/2000/svg">
<g clip-path="url(#clip0_185_6367)">
<path d="M10.6497 12.1965C8.46622 11.2709 6.72973 9.53034 5.80917 7.34475L8.36367 4.79025L3.66492 0.0915L1.28667 2.46975C0.874024 2.88435 0.547782 3.37673 0.326858 3.91835C0.105933 4.45998 -0.00527849 5.04007 -0.00033012 5.625C-0.00033012 11.061 6.93867 18 12.3747 18C12.9596 18.0049 13.5397 17.8937 14.0813 17.6728C14.6229 17.4519 15.1153 17.1256 15.5299 16.713L17.9082 14.3348L13.2094 9.636L10.6497 12.1965ZM14.4702 15.6525C14.1943 15.9254 13.8671 16.1408 13.5074 16.2863C13.1477 16.4317 12.7627 16.5044 12.3747 16.5C7.69992 16.5 1.49967 10.2997 1.49967 5.625C1.49538 5.23714 1.56807 4.85228 1.71355 4.49271C1.85903 4.13315 2.07439 3.80601 2.34717 3.53025L3.66492 2.2125L6.24267 4.79025L4.04142 6.9915L4.22592 7.452C4.76669 8.89896 5.61218 10.2128 6.7051 11.3044C7.79802 12.396 9.11282 13.2399 10.5604 13.779L11.0149 13.9523L13.2094 11.757L15.7872 14.3348L14.4702 15.6525ZM17.9997 1.875V5.25H16.4997V2.58225L12.3064 6.7755L11.2497 5.715L15.4609 1.5H12.7497V0H16.1464C16.6407 0.00337134 17.1134 0.202691 17.4608 0.554215C17.8083 0.90574 18.0021 1.38075 17.9997 1.875Z" fill="white"/>
</g>
<defs>
<clipPath id="clip0_185_6367">
<rect width="18" height="18" fill="white"/>
</clipPath>
</defs>
</svg>
