<svg width="50" height="50" viewBox="0 0 50 50" fill="none" xmlns="http://www.w3.org/2000/svg">
<circle opacity="0.4" cx="25" cy="25" r="25" fill="#EDF0F4"/>
<g clip-path="url(#clip0_1_1418)">
<path d="M13 16V24H24V13H16C15.2044 13 14.4413 13.3161 13.8787 13.8787C13.3161 14.4413 13 15.2044 13 16V16ZM22 22H15V16C15 15.7348 15.1054 15.4804 15.2929 15.2929C15.4804 15.1054 15.7348 15 16 15H22V22Z" fill="#6D81F5"/>
<path d="M13 34C13 34.7956 13.3161 35.5587 13.8787 36.1213C14.4413 36.6839 15.2044 37 16 37H24V26H13V34ZM15 28H22V35H16C15.7348 35 15.4804 34.8946 15.2929 34.7071C15.1054 34.5196 15 34.2652 15 34V28Z" fill="#6D81F5"/>
<path d="M26 26V37H34C34.7956 37 35.5587 36.6839 36.1213 36.1213C36.6839 35.5587 37 34.7956 37 34V26H26ZM35 34C35 34.2652 34.8946 34.5196 34.7071 34.7071C34.5196 34.8946 34.2652 35 34 35H28V28H35V34Z" fill="#6D81F5"/>
<path d="M30 24H32V20H36V18H32V14H30V18H26V20H30V24Z" fill="#6D81F5"/>
</g>
<rect opacity="0.2" x="14" y="27" width="9" height="9" fill="#6D81F5"/>
<rect opacity="0.2" x="27" y="27" width="9" height="9" fill="#6D81F5"/>
<defs>
<clipPath id="clip0_1_1418">
<rect width="24" height="24" fill="white" transform="translate(13 13)"/>
</clipPath>
</defs>
</svg>
