<svg width="20" height="20" viewBox="0 0 20 20" fill="none" xmlns="http://www.w3.org/2000/svg">
<g opacity="0.8" clip-path="url(#clip0_11_11261)">
<path d="M16.6663 0H2.49967V2.5H0.833008V4.16667H2.49967V5.83333H0.833008V7.5H2.49967V9.16667H0.833008V10.8333H2.49967V12.5H0.833008V14.1667H2.49967V15.8333H0.833008V17.5H2.49967V20H16.6663C17.3294 20 17.9653 19.7366 18.4341 19.2678C18.9029 18.7989 19.1663 18.163 19.1663 17.5V2.5C19.1663 1.83696 18.9029 1.20107 18.4341 0.732233C17.9653 0.263392 17.3294 0 16.6663 0V0ZM17.4997 17.5C17.4997 17.721 17.4119 17.933 17.2556 18.0893C17.0993 18.2455 16.8874 18.3333 16.6663 18.3333H4.16634V1.66667H16.6663C16.8874 1.66667 17.0993 1.75446 17.2556 1.91074C17.4119 2.06702 17.4997 2.27899 17.4997 2.5V17.5ZM10.833 10C11.3275 10 11.8108 9.85338 12.2219 9.57867C12.6331 9.30397 12.9535 8.91352 13.1427 8.45671C13.3319 7.99989 13.3814 7.49723 13.285 7.01227C13.1885 6.52732 12.9504 6.08186 12.6008 5.73223C12.2511 5.3826 11.8057 5.1445 11.3207 5.04804C10.8358 4.95157 10.3331 5.00108 9.8763 5.1903C9.41948 5.37952 9.02904 5.69995 8.75433 6.11107C8.47963 6.5222 8.33301 7.00555 8.33301 7.5C8.33301 8.16304 8.5964 8.79893 9.06524 9.26777C9.53408 9.73661 10.17 10 10.833 10ZM14.9997 13.3333V15H13.333V13.3333C13.333 13.1123 13.2452 12.9004 13.0889 12.7441C12.9326 12.5878 12.7207 12.5 12.4997 12.5H9.16634C8.94533 12.5 8.73337 12.5878 8.57709 12.7441C8.4208 12.9004 8.33301 13.1123 8.33301 13.3333V15H6.66634V13.3333C6.66634 12.6703 6.92973 12.0344 7.39857 11.5656C7.86741 11.0967 8.5033 10.8333 9.16634 10.8333H12.4997C13.1627 10.8333 13.7986 11.0967 14.2674 11.5656C14.7363 12.0344 14.9997 12.6703 14.9997 13.3333Z" fill="white"/>
</g>
<defs>
<clipPath id="clip0_11_11261">
<rect width="20" height="20" fill="white"/>
</clipPath>
</defs>
</svg>
