<svg width="236" height="220" viewBox="0 0 236 220" fill="none" xmlns="http://www.w3.org/2000/svg">
<g opacity="0.5" clip-path="url(#clip0_1_9677)">
<path d="M111.262 1.8356L104.04 5.76989L15.0691 54.2411L7.84754 58.1754C4.34341 60.0896 1.74279 63.3134 0.616251 67.1397C-0.510293 70.966 -0.0707717 75.0823 1.83839 78.5854L68.0931 199.832C70.0102 203.331 73.2389 205.927 77.071 207.052C80.9031 208.177 85.0256 207.738 88.534 205.832L88.5527 205.822L191.93 149.502L191.948 149.492C195.452 147.578 198.053 144.354 199.18 140.528C200.306 136.701 199.867 132.585 197.957 129.082L131.703 7.83571C129.786 4.33687 126.557 1.74019 122.725 0.615336C118.893 -0.509516 114.77 -0.0706674 111.262 1.8356Z" fill="#F2F2F2"/>
<path d="M113.339 5.63687L104.786 10.2968L18.4778 57.3169L9.92453 61.9767C7.42914 63.3399 5.57718 65.6356 4.77494 68.3604C3.97269 71.0852 4.28569 74.0165 5.64525 76.5112L71.9 197.757C73.2652 200.249 75.5644 202.098 78.2934 202.899C81.0223 203.7 83.958 203.388 86.4564 202.03L86.4751 202.02L189.852 145.701L189.871 145.69C192.366 144.327 194.218 142.031 195.02 139.307C195.823 136.582 195.51 133.651 194.15 131.156L127.895 9.90974C126.53 7.41815 124.231 5.56899 121.502 4.76795C118.773 3.9669 115.837 4.2794 113.339 5.63687Z" fill="white"/>
<path d="M114.765 43.2719L76.2095 64.2769C75.6254 64.5951 74.9386 64.6686 74.3003 64.4812C73.6619 64.2938 73.1242 63.8609 72.8055 63.2777C72.4868 62.6945 72.4132 62.0088 72.6009 61.3714C72.7885 60.734 73.2221 60.1971 73.8062 59.8789L112.362 38.8739C112.946 38.5557 113.633 38.4822 114.271 38.6696C114.909 38.857 115.447 39.2899 115.766 39.8731C116.085 40.4563 116.158 41.142 115.97 41.7794C115.783 42.4168 115.349 42.9537 114.765 43.2719H114.765Z" fill="#F2F2F2"/>
<path d="M127.905 45.7441L80.2651 71.6983C79.6811 72.0165 78.9943 72.09 78.3559 71.9027C77.7175 71.7153 77.1799 71.2824 76.8612 70.6991C76.5425 70.1159 76.4689 69.4302 76.6565 68.7928C76.8442 68.1554 77.2778 67.6185 77.8619 67.3003L125.502 41.3461C125.791 41.1885 126.109 41.0894 126.436 41.0543C126.764 41.0192 127.095 41.049 127.411 41.1417C127.727 41.2345 128.022 41.3886 128.279 41.5951C128.535 41.8015 128.748 42.0565 128.906 42.3452C129.064 42.634 129.163 42.951 129.198 43.2781C129.233 43.6052 129.204 43.936 129.111 44.2516C129.018 44.5672 128.863 44.8614 128.657 45.1175C128.45 45.3736 128.195 45.5865 127.905 45.7441H127.905Z" fill="#F2F2F2"/>
<path d="M60.3588 55.5332L24.8127 74.8986C24.5329 75.0512 24.3252 75.3084 24.2353 75.6138C24.1454 75.9192 24.1807 76.2477 24.3333 76.5272L39.4697 104.227C39.6225 104.506 39.8801 104.714 40.1859 104.803C40.4918 104.893 40.8208 104.858 41.1007 104.706L76.6468 85.3402C76.9266 85.1877 77.1343 84.9305 77.2242 84.6251C77.3141 84.3197 77.2789 83.9912 77.1262 83.7117L61.9898 56.012C61.8371 55.7326 61.5795 55.5253 61.2736 55.4355C60.9678 55.3457 60.6387 55.3809 60.3588 55.5332Z" fill="#F2F2F2"/>
<path d="M133.896 78.4179L81.5996 106.909C81.3104 107.066 80.9929 107.165 80.6654 107.2C80.3378 107.235 80.0065 107.206 79.6904 107.113C79.3743 107.02 79.0796 106.866 78.8231 106.66C78.5667 106.453 78.3535 106.198 78.1957 105.909C78.0379 105.621 77.9386 105.304 77.9034 104.977C77.8683 104.649 77.8981 104.319 77.991 104.003C78.0839 103.687 78.2382 103.393 78.445 103.137C78.6518 102.881 78.9071 102.668 79.1963 102.511L131.492 74.0199C132.076 73.7017 132.763 73.6282 133.401 73.8156C134.04 74.0029 134.578 74.4359 134.896 75.0191C135.215 75.6023 135.289 76.288 135.101 76.9254C134.913 77.5628 134.48 78.0997 133.896 78.4179H133.896Z" fill="#F2F2F2"/>
<path d="M147.036 80.8905L85.6553 114.33C85.0712 114.649 84.3844 114.722 83.7461 114.535C83.1077 114.347 82.57 113.914 82.2513 113.331C81.9326 112.748 81.859 112.062 82.0467 111.425C82.2343 110.788 82.6679 110.251 83.252 109.932L144.633 76.4926C145.217 76.1743 145.903 76.1008 146.542 76.2882C147.18 76.4756 147.718 76.9085 148.036 77.4917C148.355 78.0749 148.429 78.7607 148.241 79.3981C148.053 80.0355 147.62 80.5723 147.036 80.8905H147.036Z" fill="#F2F2F2"/>
<path d="M61.6827 130.242C67.5611 130.242 72.3264 125.483 72.3264 119.614C72.3264 113.744 67.5611 108.986 61.6827 108.986C55.8044 108.986 51.0391 113.744 51.0391 119.614C51.0391 125.483 55.8044 130.242 61.6827 130.242Z" fill="#F2F2F2"/>
<path d="M220.935 51.7944H103.128C99.1343 51.7989 95.3049 53.3852 92.4805 56.2053C89.6562 59.0254 88.0675 62.849 88.063 66.8372V204.957C88.0675 208.945 89.6562 212.769 92.4805 215.589C95.3049 218.409 99.1343 219.995 103.128 220H220.935C224.929 219.995 228.758 218.409 231.583 215.589C234.407 212.769 235.996 208.945 236 204.957V66.8372C235.996 62.849 234.407 59.0254 231.583 56.2053C228.758 53.3852 224.929 51.7989 220.935 51.7944Z" fill="#E6E6E6"/>
<path d="M220.935 56.125H103.128C100.284 56.1282 97.557 57.2578 95.5457 59.2661C93.5344 61.2743 92.4031 63.9972 92.3999 66.8373V204.957C92.4031 207.797 93.5344 210.52 95.5457 212.528C97.557 214.537 100.284 215.666 103.128 215.669H220.935C223.779 215.666 226.506 214.537 228.517 212.528C230.529 210.52 231.66 207.797 231.663 204.957V66.8373C231.66 63.9972 230.529 61.2744 228.517 59.2661C226.506 57.2579 223.779 56.1282 220.935 56.125Z" fill="white"/>
<path d="M204.133 89.8445H160.212C159.547 89.8445 158.908 89.5806 158.438 89.1108C157.967 88.641 157.703 88.0039 157.703 87.3395C157.703 86.6751 157.967 86.038 158.438 85.5682C158.908 85.0984 159.547 84.8345 160.212 84.8345H204.133C204.463 84.8341 204.79 84.8986 205.094 85.0243C205.399 85.1501 205.676 85.3345 205.909 85.5672C206.142 85.7998 206.327 86.0761 206.454 86.3802C206.58 86.6843 206.645 87.0103 206.645 87.3395C206.645 87.6687 206.58 87.9947 206.454 88.2988C206.327 88.6029 206.142 88.8792 205.909 89.1118C205.676 89.3445 205.399 89.5289 205.094 89.6546C204.79 89.7804 204.463 89.8449 204.133 89.8445Z" fill="#0B51B7"/>
<path d="M214.482 98.2986H160.212C159.547 98.2986 158.908 98.0347 158.438 97.5649C157.967 97.0951 157.703 96.458 157.703 95.7936C157.703 95.1292 157.967 94.4921 158.438 94.0223C158.908 93.5525 159.547 93.2886 160.212 93.2886H214.482C215.148 93.2886 215.786 93.5525 216.256 94.0223C216.727 94.4921 216.991 95.1292 216.991 95.7936C216.991 96.458 216.727 97.0951 216.256 97.5649C215.786 98.0347 215.148 98.2986 214.482 98.2986Z" fill="#0B51B7"/>
<path d="M150.492 74.5884H109.999C109.68 74.5885 109.374 74.7149 109.149 74.94C108.924 75.1651 108.797 75.4704 108.797 75.7887V107.343C108.797 107.662 108.924 107.967 109.149 108.192C109.374 108.417 109.68 108.543 109.999 108.544H150.492C150.811 108.543 151.116 108.417 151.342 108.192C151.567 107.967 151.694 107.662 151.694 107.343V75.7887C151.694 75.4704 151.567 75.1651 151.342 74.94C151.116 74.7149 150.811 74.5885 150.492 74.5884Z" fill="#E6E6E6"/>
<path d="M121.107 93.9651C121.123 96.6289 120.14 99.2023 118.351 101.178C116.58 103.118 113.944 104.405 111.284 103.873C108.835 103.382 106.844 101.245 107.093 98.659C107.134 98.099 107.297 97.5546 107.57 97.0638C107.844 96.5731 108.221 96.1478 108.676 95.8177C109.131 95.4875 109.653 95.2604 110.205 95.1521C110.757 95.0439 111.326 95.0572 111.872 95.191C114.199 95.7939 115.126 99.1422 113.187 100.714C112.722 101.091 112.053 100.431 112.523 100.051C113.805 99.0118 113.409 96.7389 111.862 96.1689C110.06 95.5053 108.152 96.9326 108.023 98.7713C107.869 100.951 109.541 102.593 111.593 102.979C113.811 103.398 116.011 102.264 117.515 100.699C119.238 98.8811 120.189 96.4677 120.168 93.9651C120.172 93.8436 120.223 93.7284 120.311 93.6439C120.398 93.5594 120.515 93.5122 120.637 93.5122C120.759 93.5122 120.876 93.5594 120.964 93.6439C121.051 93.7284 121.103 93.8436 121.107 93.9651Z" fill="#2F2E41"/>
<path d="M130.277 99.9264C139.53 99.9264 147.031 92.4366 147.031 83.1976C147.031 73.9585 139.53 66.4688 130.277 66.4688C121.024 66.4688 113.523 73.9585 113.523 83.1976C113.523 92.4366 121.024 99.9264 130.277 99.9264Z" fill="#0B51B7"/>
<path d="M129.42 90.3356L129.402 89.7105C130.567 89.6781 131.594 89.6051 132.366 89.0423C132.584 88.8736 132.764 88.6599 132.893 88.4156C133.021 88.1714 133.096 87.9024 133.111 87.6268C133.125 87.4585 133.099 87.2892 133.037 87.1323C132.974 86.9754 132.876 86.835 132.75 86.7221C132.238 86.2901 131.414 86.4299 130.813 86.705L130.295 86.9421L131.288 79.6934L131.909 79.7782L131.064 85.9443C131.88 85.7047 132.636 85.8078 133.154 86.2447C133.353 86.418 133.509 86.635 133.61 86.8786C133.711 87.1222 133.755 87.3858 133.737 87.6488C133.718 88.019 133.619 88.3808 133.446 88.7087C133.273 89.0366 133.03 89.3228 132.735 89.5472C131.743 90.2706 130.455 90.3066 129.42 90.3356Z" fill="#2F2E41"/>
<path d="M138.349 80.3101H134.977V80.9352H138.349V80.3101Z" fill="#2F2E41"/>
<path d="M127.705 80.3101H124.333V80.9352H127.705V80.3101Z" fill="#2F2E41"/>
<path d="M120.997 108.543C122.252 107.748 123.61 107.124 125.032 106.69C124.896 106.208 124.898 105.698 125.038 105.218C125.227 104.611 125.607 104.081 126.122 103.707C126.637 103.334 127.26 103.137 127.896 103.145H131.978C132.616 103.137 133.239 103.335 133.755 103.709C134.271 104.083 134.653 104.613 134.843 105.221C134.983 105.7 134.985 106.209 134.849 106.69C136.271 107.125 137.628 107.748 138.884 108.543H120.997Z" fill="#2F2E41"/>
<path d="M149.468 76.989C149.163 76.6199 148.787 76.315 148.363 76.0919C147.991 75.8979 147.578 75.796 147.158 75.7949C146.581 75.802 146.022 75.9901 145.558 76.3326C144.284 77.2328 143.401 79.1739 143.401 81.4213C143.401 84.2407 144.791 86.5788 146.598 86.9852C146.782 87.0264 146.969 87.0473 147.158 87.0477C149.227 87.0477 150.915 84.5252 150.915 81.4213C150.915 79.6209 150.348 78.0174 149.468 76.989Z" fill="#3F3D56"/>
<path d="M115.058 76.1981H115.055C114.636 75.9387 114.154 75.7992 113.662 75.7949C113.242 75.796 112.829 75.8979 112.457 76.0919C112.032 76.3149 111.657 76.6199 111.352 76.989L111.348 76.9921C110.472 78.0205 109.905 79.624 109.905 81.4213C109.905 83.8469 110.932 85.9161 112.372 86.707C112.766 86.9275 113.21 87.0447 113.662 87.0477C113.762 87.0477 113.863 87.0414 113.962 87.0289H113.965C115.894 86.7976 117.418 84.372 117.418 81.4213C117.418 79.0582 116.439 77.0296 115.058 76.1981Z" fill="#3F3D56"/>
<path d="M112.607 86.1694C112.681 86.1694 112.755 86.1516 112.821 86.1176C112.887 86.0836 112.945 86.0343 112.988 85.9738C113.032 85.9134 113.06 85.8435 113.071 85.7699C113.082 85.6962 113.076 85.6211 113.052 85.5505C112.154 82.8858 111.884 80.0502 112.263 77.2644C112.641 74.4785 113.658 71.8172 115.234 69.4875C116.81 67.1578 118.903 65.2223 121.35 63.8314C123.797 62.4406 126.532 61.6319 129.343 61.4681C132.154 61.3043 134.965 61.79 137.557 62.8872C140.149 63.9845 142.454 65.6639 144.29 67.7948C146.127 69.9257 147.447 72.4508 148.147 75.1739C148.847 77.8969 148.91 80.7445 148.329 83.4954C148.303 83.6171 148.327 83.744 148.395 83.8482C148.463 83.9524 148.569 84.0253 148.691 84.051C148.813 84.0766 148.94 84.0529 149.044 83.985C149.149 83.9171 149.222 83.8106 149.248 83.689C149.859 80.7967 149.794 77.8027 149.058 74.9396C148.322 72.0765 146.934 69.4215 145.003 67.1809C143.072 64.9403 140.65 63.1746 137.924 62.0208C135.198 60.8671 132.243 60.3565 129.288 60.5288C126.332 60.701 123.457 61.5514 120.884 63.0139C118.311 64.4764 116.111 66.5116 114.454 68.9613C112.797 71.4109 111.729 74.2091 111.331 77.1383C110.934 80.0674 111.218 83.0487 112.162 85.8503C112.193 85.9433 112.253 86.0241 112.333 86.0813C112.413 86.1386 112.509 86.1694 112.607 86.1694Z" fill="#3F3D56"/>
<path d="M138.693 72.3589C139.357 73.2631 139.03 74.4816 138.331 75.2612C137.421 76.2757 135.971 76.3397 134.711 76.1514C133.298 75.9401 131.799 75.279 130.369 75.7245C129.149 76.1043 128.279 77.2086 127.012 77.486C125.889 77.732 124.545 77.4064 124.151 76.2107C123.962 75.6361 124.869 75.3898 125.057 75.9614C125.312 76.7349 126.412 76.7195 127.042 76.5053C128.052 76.1619 128.831 75.3265 129.824 74.9276C130.994 74.4572 132.264 74.6695 133.456 74.9375C134.579 75.1901 135.872 75.5645 136.991 75.0928C137.819 74.7436 138.478 73.644 137.883 72.8322C137.525 72.3448 138.34 71.8765 138.693 72.3589Z" fill="#2F2E41"/>
<path d="M204.068 129.846H144.494C144.164 129.846 143.838 129.781 143.534 129.655C143.229 129.529 142.953 129.345 142.72 129.112C142.487 128.88 142.302 128.604 142.176 128.3C142.05 127.996 141.985 127.67 141.985 127.341C141.985 127.012 142.05 126.686 142.176 126.382C142.302 126.078 142.487 125.802 142.72 125.57C142.953 125.337 143.229 125.153 143.534 125.027C143.838 124.901 144.164 124.836 144.494 124.836H204.068C204.732 124.837 205.37 125.101 205.84 125.571C206.31 126.04 206.574 126.677 206.574 127.341C206.574 128.005 206.31 128.642 205.84 129.111C205.37 129.581 204.732 129.845 204.068 129.846Z" fill="#E6E6E6"/>
<path d="M214.416 138.301H144.494C144.164 138.301 143.837 138.236 143.533 138.111C143.228 137.985 142.951 137.8 142.718 137.568C142.484 137.335 142.299 137.059 142.173 136.755C142.047 136.451 141.982 136.125 141.982 135.796C141.982 135.466 142.047 135.14 142.173 134.836C142.299 134.532 142.484 134.256 142.718 134.023C142.951 133.791 143.228 133.606 143.533 133.48C143.837 133.355 144.164 133.29 144.494 133.291H214.416C214.746 133.29 215.072 133.355 215.377 133.48C215.682 133.606 215.959 133.791 216.192 134.023C216.425 134.256 216.61 134.532 216.737 134.836C216.863 135.14 216.928 135.466 216.928 135.796C216.928 136.125 216.863 136.451 216.737 136.755C216.61 137.059 216.425 137.335 216.192 137.568C215.959 137.8 215.682 137.985 215.377 138.111C215.072 138.236 214.746 138.301 214.416 138.301Z" fill="#E6E6E6"/>
<path d="M204.068 160.233H144.494C143.828 160.233 143.19 159.969 142.72 159.499C142.249 159.029 141.985 158.392 141.985 157.728C141.985 157.063 142.249 156.426 142.72 155.956C143.19 155.487 143.828 155.223 144.494 155.223H204.068C204.733 155.223 205.371 155.487 205.841 155.956C206.312 156.426 206.576 157.063 206.576 157.728C206.576 158.392 206.312 159.029 205.841 159.499C205.371 159.969 204.733 160.233 204.068 160.233Z" fill="#E6E6E6"/>
<path d="M214.416 168.687H144.494C143.828 168.687 143.19 168.423 142.72 167.953C142.249 167.483 141.985 166.846 141.985 166.182C141.985 165.517 142.249 164.88 142.72 164.41C143.19 163.941 143.828 163.677 144.494 163.677H214.416C215.082 163.677 215.72 163.941 216.19 164.41C216.661 164.88 216.925 165.517 216.925 166.182C216.925 166.846 216.661 167.483 216.19 167.953C215.72 168.423 215.082 168.687 214.416 168.687Z" fill="#E6E6E6"/>
<path d="M120.915 142.102C126.794 142.102 131.559 137.344 131.559 131.474C131.559 125.605 126.794 120.847 120.915 120.847C115.037 120.847 110.271 125.605 110.271 131.474C110.271 137.344 115.037 142.102 120.915 142.102Z" fill="#E6E6E6"/>
<path d="M120.915 172.734C126.794 172.734 131.559 167.976 131.559 162.107C131.559 156.237 126.794 151.479 120.915 151.479C115.037 151.479 110.271 156.237 110.271 162.107C110.271 167.976 115.037 172.734 120.915 172.734Z" fill="#E6E6E6"/>
<path d="M204.068 190.865H144.494C143.828 190.865 143.19 190.601 142.72 190.131C142.249 189.662 141.985 189.024 141.985 188.36C141.985 187.696 142.249 187.058 142.72 186.589C143.19 186.119 143.828 185.855 144.494 185.855H204.068C204.733 185.855 205.371 186.119 205.841 186.589C206.312 187.058 206.576 187.696 206.576 188.36C206.576 189.024 206.312 189.662 205.841 190.131C205.371 190.601 204.733 190.865 204.068 190.865Z" fill="#E6E6E6"/>
<path d="M214.416 199.32H144.494C143.828 199.32 143.19 199.056 142.72 198.586C142.249 198.116 141.985 197.479 141.985 196.815C141.985 196.15 142.249 195.513 142.72 195.043C143.19 194.573 143.828 194.31 144.494 194.31H214.416C215.082 194.31 215.72 194.573 216.19 195.043C216.661 195.513 216.925 196.15 216.925 196.815C216.925 197.479 216.661 198.116 216.19 198.586C215.72 199.056 215.082 199.32 214.416 199.32Z" fill="#E6E6E6"/>
<path d="M120.915 203.367C126.794 203.367 131.559 198.608 131.559 192.739C131.559 186.869 126.794 182.111 120.915 182.111C115.037 182.111 110.271 186.869 110.271 192.739C110.271 198.608 115.037 203.367 120.915 203.367Z" fill="#E6E6E6"/>
</g>
<defs>
<clipPath id="clip0_1_9677">
<rect width="236" height="220" fill="white"/>
</clipPath>
</defs>
</svg>
