<svg width="50" height="50" viewBox="0 0 50 50" fill="none" xmlns="http://www.w3.org/2000/svg">
<circle opacity="0.4" cx="25" cy="25" r="25" fill="#EDF0F4"/>
<path opacity="0.2" d="M14 25L19.5 25.5L21.5 28.5L25 29.5L28.5 28.5L30 26L36 25V35H14V25Z" fill="#0B51B7"/>
<g clip-path="url(#clip0_1_1409)">
<path d="M34 36H16C15.2044 36 14.4413 35.6839 13.8787 35.1213C13.3161 34.5587 13 33.7956 13 33V24H21V26C21 26.5304 21.2107 27.0391 21.5858 27.4142C21.9609 27.7893 22.4696 28 23 28H27C27.5304 28 28.0391 27.7893 28.4142 27.4142C28.7893 27.0391 29 26.5304 29 26V24H37V33C37 33.7956 36.6839 34.5587 36.1213 35.1213C35.5587 35.6839 34.7956 36 34 36ZM15 26V33C15 33.2652 15.1054 33.5196 15.2929 33.7071C15.4804 33.8946 15.7348 34 16 34H34C34.2652 34 34.5196 33.8946 34.7071 33.7071C34.8946 33.5196 35 33.2652 35 33V26H31C31 27.0609 30.5786 28.0783 29.8284 28.8284C29.0783 29.5786 28.0609 30 27 30H23C21.9391 30 20.9217 29.5786 20.1716 28.8284C19.4214 28.0783 19 27.0609 19 26H15Z" fill="#0B51B7"/>
<path d="M35 20.001H15V22.001H35V20.001Z" fill="#0B51B7"/>
<path d="M35 16.0005H15V18.0005H35V16.0005Z" fill="#0B51B7"/>
</g>
<defs>
<clipPath id="clip0_1_1409">
<rect width="24" height="24" fill="white" transform="translate(13 12)"/>
</clipPath>
</defs>
</svg>
